Coordinates
version=1
nRows=42
nColumns=11
inDegrees=no

Units are S.I. units (second, meters, Newtons, ...)
If the header above contains a line with 'inDegrees', this indicates whether rotational values are in degrees (yes) or radians (no).

endheader
time	pelvis_tilt	pelvis_tx	pelvis_ty	hip_flexion_r	knee_angle_r	ankle_angle_r	hip_flexion_l	knee_angle_l	ankle_angle_l	lumbar_extension
210.53	0.00502201	0.322435	1.00545	0.0575198	-0.867456	0.0576682	0.33182	-0.437972	0.188873	0
210.54	0.00448803	0.321642	1.00696	0.0883911	-0.916917	0.00170227	0.318878	-0.427779	0.190706	0
210.55	0.00477576	0.320664	1.00843	0.118066	-0.962687	-0.044236	0.30519	-0.417072	0.191717	0
210.56	0.00232463	0.319537	1.00952	0.148864	-1.00313	-0.0629398	0.29442	-0.406802	0.194513	0
210.57	0.00069119	0.318147	1.01065	0.177335	-1.03706	-0.0627383	0.283192	-0.39627	0.199134	0
210.58	-0.000780109	0.316688	1.01173	0.205546	-1.06695	-0.0521812	0.272823	-0.387392	0.203438	0
210.59	-0.00349649	0.315297	1.01264	0.23591	-1.09517	-0.0402644	0.263291	-0.377768	0.206634	0
210.6	-0.00535638	0.313878	1.01361	0.264396	-1.11798	-0.033242	0.253274	-0.368824	0.209688	0
210.61	-0.00443599	0.31231	1.01478	0.288835	-1.13436	-0.0301273	0.240315	-0.360166	0.21212	0
210.62	-0.000526805	0.310916	1.01634	0.308411	-1.14466	-0.0291937	0.222466	-0.348323	0.212803	0
210.63	0.00152881	0.309535	1.01756	0.329391	-1.15201	-0.0214807	0.206579	-0.336476	0.214404	0
210.64	0.00316296	0.30811	1.01861	0.350038	-1.15507	-0.0112069	0.191947	-0.326052	0.214576	0
210.65	0.00548222	0.306744	1.0198	0.367261	-1.15039	-0.00251906	0.177733	-0.317528	0.214679	0
210.66	0.00667783	0.305199	1.02081	0.384113	-1.1408	0.00608551	0.165561	-0.310562	0.217398	0
210.67	0.00779366	0.303541	1.02169	0.399666	-1.12653	0.0172956	0.15266	-0.301987	0.220642	0
210.68	0.0092618	0.301939	1.02241	0.413531	-1.10867	0.0331254	0.139509	-0.292959	0.223935	0
210.69	0.00908952	0.300221	1.02274	0.427587	-1.08607	0.0461351	0.129769	-0.287193	0.227007	0
210.7	0.0090521	0.298708	1.0231	0.438794	-1.057	0.057403	0.119601	-0.281156	0.22973	0
210.71	0.00892336	0.297154	1.02342	0.447408	-1.02205	0.0667573	0.110202	-0.276013	0.233601	0
210.72	0.00821598	0.295613	1.02369	0.455498	-0.983796	0.0740789	0.10248	-0.273001	0.238028	0
210.73	0.00928163	0.294484	1.0239	0.46072	-0.943854	0.0801439	0.0909616	-0.267753	0.241156	0
210.74	0.0100731	0.293345	1.0238	0.465901	-0.90192	0.0856238	0.0800406	-0.262823	0.246438	0
210.75	0.0103464	0.292005	1.02363	0.468703	-0.853561	0.0888413	0.0695084	-0.257162	0.251892	0
210.76	0.0100168	0.290744	1.02297	0.471016	-0.803126	0.0912731	0.0580668	-0.249801	0.259743	0
210.77	0.00965097	0.289583	1.02245	0.47234	-0.750036	0.0904231	0.0482608	-0.244886	0.265832	0
210.78	0.00846336	0.288339	1.02202	0.472386	-0.693754	0.0816534	0.0425838	-0.245844	0.272599	0
210.79	0.00794351	0.287049	1.02149	0.469645	-0.634384	0.0686939	0.0374577	-0.249262	0.280659	0
210.8	0.00433071	0.285795	1.02032	0.469029	-0.573784	0.0539676	0.0352196	-0.252041	0.290888	0
210.81	0.00793389	0.285172	1.01958	0.460343	-0.515578	0.0464378	0.0216702	-0.248651	0.30036	0
210.82	0.0113503	0.284902	1.01921	0.450899	-0.456416	0.0411024	0.00832954	-0.246001	0.304162	0
210.83	0.0142188	0.284587	1.01875	0.44208	-0.398151	0.035133	-0.00399803	-0.245356	0.306824	0
210.84	0.0139617	0.283798	1.01757	0.437081	-0.341962	0.0294915	-0.0106445	-0.248698	0.31426	0
210.85	0.0146279	0.283253	1.01646	0.430544	-0.287082	0.0271712	-0.0189565	-0.249539	0.325337	0
210.86	0.0171129	0.28262	1.01541	0.423866	-0.237566	0.0306022	-0.0315282	-0.245174	0.335745	0
210.87	0.0191864	0.282139	1.01424	0.418574	-0.194072	0.0345482	-0.0447118	-0.240729	0.342018	0
210.88	0.0178881	0.281398	1.01275	0.417507	-0.154665	0.0327897	-0.0502136	-0.243282	0.350406	0
210.89	0.0173424	0.280787	1.01157	0.417317	-0.122107	0.028807	-0.0572942	-0.243998	0.358879	0
210.9	0.019833	0.280801	1.01055	0.413607	-0.0944012	0.0278572	-0.0708654	-0.239534	0.366168	0
210.91	0.0220073	0.280631	1.00928	0.411597	-0.0758657	0.0258275	-0.0818984	-0.239564	0.377197	0
210.92	0.0221326	0.280173	1.0076	0.415102	-0.0703486	0.024386	-0.0912077	-0.239329	0.383071	0
210.93	0.0228603	0.279649	1.00604	0.42202	-0.0786341	0.0233968	-0.100276	-0.240779	0.388849	0
210.94	0.0236894	0.279268	1.00471	0.430486	-0.0952073	0.023719	-0.10898	-0.242724	0.392302	0
